<svg viewBox="0 0 48 48" xmlns="http://www.w3.org/2000/svg">
  <g>
    <g>
      <rect width="48" height="48" fill="none" />
    </g>
    <g>
      <g>
        <path d="M20,30H8a2,2,0,0,0-2,2V42a2,2,0,0,0,2,2H20a2,2,0,0,0,2-2V32a2,2,0,0,0-2-2Z" />
        <path d="M20,4H8A2,2,0,0,0,6,6V24a2,2,0,0,0,2,2H20a2,2,0,0,0,2-2V6a2,2,0,0,0-2-2Z" />
        <path d="M40,4H28a2,2,0,0,0-2,2V16a2,2,0,0,0,2,2H40a2,2,0,0,0,2-2V6a2,2,0,0,0-2-2Z" />
        <path d="M40,22H28a2,2,0,0,0-2,2V42a2,2,0,0,0,2,2H40a2,2,0,0,0,2-2V24a2,2,0,0,0-2-2Z" />
      </g>
    </g>
  </g>
</svg>
